<svg id="Capa_1" enable-background="new 0 0 512 512" height="512" viewBox="0 0 512 512" width="512" xmlns="http://www.w3.org/2000/svg"><g><g><path d="m101.939 96.127v178.013h4.723c24.659 0 44.648 19.989 44.648 44.648v68.21l79.431-33.136v-6.201-51.605c0-24.659-19.99-44.659-44.659-44.659h-4.712v-234.691c-43.863 0-79.431 35.558-79.431 79.421z" fill="#dddaec"/><path d="m268.3 321.423c-48.005 0-86.93 38.925-86.93 86.941s38.925 86.93 86.93 86.93c48.016 0 86.941-38.914 86.941-86.93s-38.925-86.941-86.941-86.941zm0 137.56c-27.951 0-50.609-22.668-50.609-50.619 0-27.962 22.658-50.619 50.609-50.619 27.962 0 50.619 22.658 50.619 50.619.001 27.951-22.657 50.619-50.619 50.619z" fill="#da4a54"/><g fill="#d82e3d"><path d="m277.127 458.2c2.867.505 5.812.783 8.824.783 27.962 0 50.619-22.668 50.619-50.619 0-27.962-22.658-50.619-50.619-50.619-3.012 0-5.956.278-8.824.782 23.749 4.177 41.793 24.888 41.793 49.837 0 24.939-18.044 45.658-41.793 49.836z"/><path d="m199.02 408.364c0-45.037 34.244-82.073 78.106-86.496-2.902-.293-5.846-.444-8.826-.444-48.005 0-86.93 38.925-86.93 86.941s38.924 86.93 86.93 86.93c2.98 0 5.924-.151 8.826-.444-43.861-4.424-78.106-41.451-78.106-86.487z"/></g><path d="m260.802 96.127v178.013h-4.723c-24.659 0-44.648 19.99-44.648 44.648v8.091c0 33.203-26.916 60.119-60.119 60.119l-19.312-35.521v-55.421c0-24.659 19.99-44.659 44.659-44.659h4.712v-234.691c43.862 0 79.431 35.558 79.431 79.421z" fill="#f9f6f6"/><path d="m94.43 321.423c-48.005 0-86.93 38.925-86.93 86.941s38.925 86.93 86.93 86.93c48.016 0 86.941-38.914 86.941-86.93-.001-48.016-38.925-86.941-86.941-86.941zm0 137.56c-27.951 0-50.609-22.668-50.609-50.619 0-27.962 22.658-50.619 50.609-50.619 27.962 0 50.619 22.658 50.619 50.619 0 27.951-22.657 50.619-50.619 50.619z" fill="#da4a54"/><g fill="#d82e3d"><path d="m103.256 458.2c2.867.505 5.812.783 8.824.783 27.962 0 50.619-22.668 50.619-50.619 0-27.962-22.658-50.619-50.619-50.619-3.012 0-5.956.278-8.824.782 23.749 4.177 41.793 24.888 41.793 49.837 0 24.939-18.044 45.658-41.793 49.836z"/><path d="m25.15 408.364c0-45.037 34.244-82.073 78.106-86.496-2.902-.293-5.846-.444-8.826-.444-48.005 0-86.93 38.925-86.93 86.941s38.924 86.93 86.93 86.93c2.98 0 5.924-.151 8.826-.444-43.862-4.424-78.106-41.451-78.106-86.487z"/></g><circle cx="183.519" cy="287.077" fill="#ffe07d" r="15.026"/><path d="m418.693 16.706h-107.881c-10.246 0-18.553 8.306-18.553 18.553 0 10.246 8.306 18.553 18.553 18.553h107.881c10.246 0 18.553 8.306 18.553 18.553 0 10.246-8.306 18.553-18.553 18.553h-107.881c-10.246 0-18.553 8.306-18.553 18.553 0 10.246 8.306 18.553 18.553 18.553h107.881c10.246 0 18.553 8.306 18.553 18.553 0 10.246-8.306 18.553-18.553 18.553h-107.881c-10.246 0-18.553 8.306-18.553 18.553 0 10.246 8.306 18.553 18.553 18.553h107.881c10.246 0 18.553 8.306 18.553 18.553 0 10.246-8.306 18.553-18.553 18.553h-107.881c-10.246 0-18.553 8.306-18.553 18.553 0 10.246 8.306 18.553 18.553 18.553h85.646c9.905 0 17.935 8.03 17.935 17.935v155.414c0 24.882 20.171 45.054 45.054 45.054 24.882 0 45.054-20.171 45.054-45.054v-397.964c0-19.4-15.726-35.126-35.126-35.126h-50.682z" fill="#80b4fb"/><g fill="#61a2f9"><path d="m464.182 146.577c0-10.246-8.306-18.553-18.553-18.553h-26.936c10.246 0 18.553 8.307 18.553 18.553 0 10.246-8.306 18.553-18.553 18.553h26.936c10.246 0 18.553-8.307 18.553-18.553z"/><path d="m310.812 53.812h26.936c-10.246 0-18.553-8.306-18.553-18.553 0-10.246 8.306-18.553 18.553-18.553h-26.936c-10.247 0-18.553 8.307-18.553 18.553 0 10.247 8.306 18.553 18.553 18.553z"/><path d="m464.182 72.365c0-10.246-8.306-18.553-18.553-18.553h-26.936c10.246 0 18.553 8.306 18.553 18.553 0 10.246-8.306 18.553-18.553 18.553h26.936c10.246 0 18.553-8.306 18.553-18.553z"/><path d="m418.693 239.341h26.936c10.246 0 18.553-8.306 18.553-18.553 0-10.246-8.306-18.553-18.553-18.553h-26.936c10.246 0 18.553 8.306 18.553 18.553 0 10.247-8.307 18.553-18.553 18.553z"/><path d="m319.195 257.894c0-10.247 8.306-18.553 18.553-18.553h-26.936c-10.247 0-18.553 8.306-18.553 18.553 0 10.246 8.306 18.553 18.553 18.553h26.936c-10.247 0-18.553-8.307-18.553-18.553z"/><path d="m441.329 449.796v-155.414c0-9.905-8.03-17.935-17.935-17.935h-26.936c9.905 0 17.935 8.03 17.935 17.935v155.414c0 24.883 20.171 45.054 45.053 45.054 4.691 0 9.215-.719 13.468-2.049-18.303-5.727-31.585-22.814-31.585-43.005z"/><path d="m310.812 128.024h26.936c-10.246 0-18.553-8.306-18.553-18.553 0-10.247 8.306-18.553 18.553-18.553h-26.936c-10.247 0-18.553 8.306-18.553 18.553 0 10.247 8.306 18.553 18.553 18.553z"/><path d="m310.812 202.235h26.936c-10.246 0-18.553-8.306-18.553-18.553 0-10.247 8.306-18.553 18.553-18.553h-26.936c-10.247 0-18.553 8.306-18.553 18.553 0 10.247 8.306 18.553 18.553 18.553z"/></g></g><g><path d="m268.3 313.923c-10.359 0-20.425 1.646-30.058 4.888v-22.756c0-3.175-.283-6.315-.844-9.386 5.631-3.301 12.005-5.03 18.68-5.03h4.724c4.143 0 7.5-3.358 7.5-7.5v-178.012c0-47.928-38.997-86.92-86.932-86.92-.041 0-.08.005-.121.006-41.652.057-77.502 29.724-85.268 70.587-.773 4.069 1.898 7.995 5.968 8.769 4.068.773 7.995-1.898 8.769-5.968 5.959-31.356 31.914-54.744 63.152-58.001v219.372c-18.579 1.008-35.237 12.032-43.615 28.288-6.434-3.282-13.474-5.168-20.815-5.547v-155.583c0-4.142-3.357-7.5-7.5-7.5s-7.5 3.358-7.5 7.5v163.01c0 4.142 3.357 7.5 7.5 7.5h4.72c6.679 0 13.054 1.728 18.684 5.028-.562 3.072-.845 6.212-.845 9.387v22.778c-9.449-3.182-19.561-4.909-30.069-4.909-52.068 0-94.43 42.366-94.43 94.44 0 52.069 42.361 94.43 94.43 94.43 38.997 0 72.547-23.757 86.94-57.555 14.391 33.799 47.938 57.555 86.93 57.555 52.075 0 94.441-42.361 94.441-94.43 0-52.075-42.366-94.441-94.441-94.441zm-45.058-12.532v23.976c-1.467.798-2.91 1.635-4.332 2.51.005-.333.019-.666.019-.999v-8.09c.001-6.194 1.515-12.126 4.313-17.397zm-83.743-5.336c0-3.621.513-7.163 1.533-10.562 4.621-15.66 19.271-26.597 35.626-26.597h4.712c4.14 0 7.495-3.354 7.5-7.492 0-.001 0-.002 0-.003v-.004-226.802c36.152 3.762 64.432 34.407 64.432 71.532v170.583c-10.589.547-20.556 4.225-28.965 10.709-12.969 9.95-20.407 25.028-20.407 41.368v8.09c0 5.475-.839 10.869-2.495 16.041-2.472 7.74-6.798 14.913-12.523 20.764-.085.079-.168.16-.249.242-1.547 1.574-3.214 3.062-4.956 4.421-.917.715-1.861 1.389-2.818 2.04-8.454-19.17-23.097-35.021-41.389-44.997v-29.333zm-45.069 191.738c-43.798 0-79.43-35.632-79.43-79.43 0-43.804 35.632-79.44 79.43-79.44 43.804 0 79.44 35.637 79.44 79.44 0 43.799-35.637 79.43-79.44 79.43zm173.87 0c-43.798 0-79.43-35.632-79.43-79.43 0-10.208 1.924-20.117 5.678-29.493 1.587-1.322 3.116-2.722 4.566-4.182.08-.074.16-.151.237-.229 7.007-7.076 12.411-15.693 15.713-25.022 5.695-5.15 12.048-9.44 18.922-12.741 10.751-5.157 22.296-7.772 34.313-7.772 43.804 0 79.441 35.637 79.441 79.44.001 43.798-35.636 79.429-79.44 79.429z"/><path d="m268.301 350.245c-32.042 0-58.109 26.072-58.109 58.119s26.067 58.119 58.109 58.119c32.047 0 58.119-26.072 58.119-58.119s-26.072-58.119-58.119-58.119zm0 101.238c-23.771 0-43.109-19.343-43.109-43.119s19.339-43.119 43.109-43.119c23.776 0 43.119 19.343 43.119 43.119s-19.343 43.119-43.119 43.119z"/><path d="m94.43 350.245c-32.041 0-58.108 26.072-58.108 58.119s26.067 58.119 58.108 58.119c32.047 0 58.119-26.072 58.119-58.119s-26.072-58.119-58.119-58.119zm0 101.238c-23.771 0-43.108-19.343-43.108-43.119s19.338-43.119 43.108-43.119c23.776 0 43.119 19.343 43.119 43.119s-19.343 43.119-43.119 43.119z"/><path d="m183.52 309.604c12.421 0 22.526-10.105 22.526-22.526s-10.105-22.526-22.526-22.526-22.526 10.105-22.526 22.526 10.105 22.526 22.526 22.526zm0-30.053c4.15 0 7.526 3.376 7.526 7.526s-3.376 7.526-7.526 7.526-7.526-3.376-7.526-7.526 3.375-7.526 7.526-7.526z"/><path d="m469.37 9.21h-158.56c-14.364 0-26.05 11.686-26.05 26.05 0 6.957 2.713 13.5 7.629 18.415 4.908 4.924 11.45 7.635 18.421 7.635h107.88c6.099 0 11.06 4.961 11.06 11.06 0 2.949-1.149 5.718-3.252 7.814-2.08 2.086-4.853 3.235-7.808 3.235h-107.88c-14.364 0-26.05 11.686-26.05 26.05 0 6.956 2.713 13.499 7.637 18.422 4.918 4.918 11.457 7.627 18.413 7.627h107.88c6.099 0 11.06 4.961 11.06 11.06 0 2.949-1.152 5.725-3.244 7.817-2.084 2.085-4.86 3.233-7.815 3.233h-107.881c-14.364 0-26.05 11.686-26.05 26.05 0 6.956 2.713 13.499 7.629 18.415 4.914 4.93 11.456 7.646 18.421 7.646h107.88c6.099 0 11.06 4.957 11.06 11.05 0 2.949-1.149 5.718-3.252 7.814-2.08 2.086-4.853 3.235-7.808 3.235h-107.88c-14.364 0-26.05 11.686-26.05 26.05 0 6.971 2.715 13.517 7.629 18.415 4.914 4.93 11.456 7.646 18.421 7.646h85.65c5.751 0 10.43 4.679 10.43 10.43v18.39c0 4.142 3.357 7.5 7.5 7.5s7.5-3.358 7.5-7.5v-18.39c0-14.022-11.407-25.43-25.43-25.43h-85.65c-2.949 0-5.718-1.149-7.814-3.252-2.086-2.08-3.235-4.852-3.235-7.808 0-6.093 4.957-11.05 11.05-11.05h107.879c6.971 0 13.516-2.715 18.414-7.628 4.931-4.915 7.646-11.458 7.646-18.421 0-14.364-11.69-26.05-26.06-26.05h-107.88c-2.949 0-5.718-1.149-7.807-3.244-2.092-2.091-3.243-4.867-3.243-7.816 0-6.093 4.957-11.05 11.05-11.05h107.88c6.962 0 13.505-2.708 18.423-7.626 4.925-4.925 7.637-11.468 7.637-18.423 0-14.37-11.69-26.06-26.06-26.06h-107.88c-2.949 0-5.721-1.148-7.807-3.234-2.092-2.091-3.243-4.867-3.243-7.816 0-6.093 4.957-11.05 11.05-11.05h107.88c6.971 0 13.516-2.715 18.414-7.628 4.931-4.915 7.646-11.458 7.646-18.421 0-14.37-11.69-26.06-26.06-26.06h-107.88c-2.955 0-5.725-1.146-7.807-3.234-2.092-2.091-3.243-4.867-3.243-7.816 0-6.093 4.957-11.05 11.05-11.05h158.56c15.235 0 27.63 12.39 27.63 27.62v397.968c0 10.03-3.908 19.461-11.004 26.557-7.088 7.089-16.516 10.993-26.546 10.993-20.711 0-37.561-16.845-37.561-37.55v-107.07c0-4.142-3.357-7.5-7.5-7.5s-7.5 3.358-7.5 7.5v107.07c0 28.976 23.578 52.55 52.561 52.55 14.037 0 27.231-5.464 37.153-15.387 9.929-9.928 15.397-23.127 15.397-37.163v-397.97c0-23.501-19.124-42.62-42.63-42.62z"/></g></g></svg>