<svg id="Capa_1" enable-background="new 0 0 512 512" height="512" viewBox="0 0 512 512" width="512" xmlns="http://www.w3.org/2000/svg"><g><g><g><path d="m223.268 7.5c-19.63 0-35.544 15.913-35.544 35.544 0-19.63-15.913-35.544-35.544-35.544h-64.95c-39.824 0-72.109 32.284-72.109 72.109v162.509h172.602 107.652v-162.509c.001-39.825-32.283-72.109-72.107-72.109z" fill="#30579d"/><path d="m152.183 7.503c3.129 0 6.157.404 9.042 1.161-33.651 6.098-59.17 35.535-59.17 70.945v162.512h-86.933v-162.512c0-39.825 32.289-72.105 72.114-72.105h64.947z" fill="#26457d"/><path d="m157.128 311.02h-3.757c-53.724 0-97.277 43.552-97.277 97.277v95.484h198.31v-95.484c0-53.725-43.552-97.277-97.276-97.277z" fill="#f9f6f6"/><path d="m179.132 313.523c-43.127 9.975-75.266 48.62-75.266 94.774v95.484h-47.772v-95.484c0-53.726 43.552-97.277 97.277-97.277h3.75c7.572 0 14.945.867 22.011 2.503z" fill="#dddaec"/><path d="m222.547 318.819v184.962h-134.595v-184.962h29.228v79.205h76.139v-79.205z" fill="#80b4fb"/><path d="m117.18 318.819v40.332c-8.458 14.419-13.311 31.215-13.311 49.149v95.482h-15.917v-167.489c7.968-7.24 17.145-13.181 27.181-17.475h2.047z" fill="#61a2f9"/><path d="m264.156 215.271h4.365c14.837 0 26.856 12.019 26.856 26.847 0 7.41-3.003 14.13-7.864 18.991-4.861 4.853-11.573 7.864-18.991 7.864h-5.896-214.753-5.896c-14.837 0-26.856-12.027-26.856-26.856 0-7.41 3.003-14.122 7.864-18.983s11.573-7.864 18.991-7.864h4.365" fill="#eaac9d"/><g><path d="m264.156 178.716v71.973c0 30.077-12.187 57.294-31.902 77.009-19.706 19.706-46.932 31.894-77.009 31.894-60.145 0-108.902-48.757-108.902-108.902v-71.973c0-23.912 19.378-43.29 43.29-43.29h19.774c32.272 0 60.599-16.864 76.647-42.264v7.452c0 19.227 15.585 34.812 34.812 34.812 11.952 0 22.776 4.844 30.607 12.675 7.838 7.837 12.683 18.662 12.683 30.614z" fill="#ffddce"/><path d="m184.17 355.713c-9.21 2.523-18.907 3.877-28.925 3.877-60.145 0-108.902-48.757-108.902-108.902v-71.973c0-23.912 19.378-43.29 43.29-43.29h14.551v115.263c-.001 50.137 33.878 92.359 79.986 105.025z" fill="#ffcbbe"/></g><g><g><circle cx="155.249" cy="462.943" fill="#30579d" r="20.428"/></g></g></g><g><circle cx="352.622" cy="466.957" fill="#da4a54" r="37.543"/><path d="m393.122 286.858h-80.998c-34.343 0-62.184 27.841-62.184 62.184v73.472c0 34.343 27.841 62.184 62.184 62.184h80.998c34.343 0 62.184-27.841 62.184-62.184v-73.472c0-34.344-27.841-62.184-62.184-62.184z" fill="#d09080"/><path d="m378.634 484.697h-66.51c-34.346 0-62.185-27.839-62.185-62.185v-73.47c0-34.338 27.839-62.185 62.185-62.185h66.51c-34.346 0-62.185 27.847-62.185 62.185v73.47c0 34.346 27.839 62.185 62.185 62.185z" fill="#c67d66"/><path d="m352.622 397.605h-34.117c-18.569 0-33.622 15.053-33.622 33.622v35.73c0 18.706 15.164 33.869 33.869 33.869 18.706 0 33.869-15.164 33.869-33.869 0 18.705 15.164 33.869 33.869 33.869 18.706 0 33.869-15.164 33.869-33.869v-35.73c0-18.569-15.053-33.622-33.622-33.622z" fill="#f9f6f6"/><path d="m336.318 495.92c-5.125 3.112-11.139 4.907-17.565 4.907-18.705 0-33.869-15.164-33.869-33.869v-35.738c0-18.567 15.059-33.619 33.627-33.619h35.122c-18.567 0-33.619 15.051-33.619 33.619v35.737c0 12.279 6.523 23.021 16.304 28.963z" fill="#dddaec"/><path d="m337.665 286.854h29.911v110.749h-29.911z" fill="#f9f6f6"/><path d="m367.577 286.854v.977c-11.334 2.038-21.599 7.143-29.911 14.425v-15.402z" fill="#dddaec"/><path d="m369.288 384.703h-33.332c-9.501 0-17.203 7.702-17.203 17.203 0 9.501 7.702 17.203 17.203 17.203h5.376v10.215c0 6.235 5.055 11.29 11.29 11.29 6.235 0 11.29-5.055 11.29-11.29v-10.214h5.376c9.501 0 17.203-7.702 17.203-17.203.001-9.502-7.701-17.204-17.203-17.204z" fill="#30579d"/><path d="m357.844 439.332c-1.56.816-3.33 1.277-5.222 1.277-6.24 0-11.292-5.052-11.292-11.292v-10.209h-5.375c-4.753 0-9.053-1.924-12.165-5.036-3.112-3.12-5.036-7.421-5.036-12.165 0-9.506 7.695-17.209 17.201-17.209h15.827c-9.506 0-17.209 7.703-17.209 17.209 0 4.745 1.924 9.045 5.036 12.165 3.12 3.112 7.421 5.036 12.174 5.036v10.209c-.001 4.349 2.456 8.124 6.061 10.015z" fill="#26457d"/><path d="m256.21 270.368-40.68 40.68c-9.551 9.551-9.551 25.037 0 34.589l19.323 19.323c12.704 12.704 34.312 7.833 40.336-9.093l21.357-60.003c3.166-8.896.929-18.819-5.748-25.496-9.551-9.551-25.037-9.551-34.588 0z" fill="#f9f6f6"/><path d="m246.529 310.345c-9.555 9.546-9.555 25.034 0 34.589l19.319 19.319c.719.719 1.471 1.39 2.247 1.988-9.215 7.889-23.725 8.237-33.247-1.285l-19.319-19.319c-9.555-9.555-9.555-25.042 0-34.589l40.675-40.684c4.777-4.769 11.042-7.162 17.298-7.162 5.327 0 10.654 1.738 15.067 5.206-.469.388-.921.808-1.366 1.253z" fill="#dddaec"/><path d="m449.035 270.368 40.68 40.68c9.551 9.551 9.551 25.037 0 34.589l-19.323 19.323c-12.704 12.704-34.312 7.833-40.336-9.093l-21.357-60.003c-3.166-8.896-.929-18.819 5.748-25.496 9.55-9.551 25.036-9.551 34.588 0z" fill="#f9f6f6"/><path d="m465.549 368.736c-12.756 7.615-30.183 2.069-35.494-12.861l-21.356-60.011c-3.169-8.892-.93-18.818 5.747-25.495 4.769-4.777 11.034-7.162 17.29-7.162 4.317 0 8.625 1.132 12.456 3.403-1.73 1.019-3.355 2.271-4.834 3.759-6.677 6.677-8.916 16.603-5.755 25.495l21.364 60.011c2.046 5.755 5.893 10.112 10.582 12.861z" fill="#dddaec"/></g></g><g><path d="m155.249 435.015c-15.399 0-27.928 12.528-27.928 27.928 0 15.399 12.528 27.927 27.928 27.927 15.399 0 27.927-12.528 27.927-27.927.001-15.399-12.528-27.928-27.927-27.928zm0 40.856c-7.128 0-12.928-5.799-12.928-12.927s5.799-12.928 12.928-12.928c7.128 0 12.927 5.799 12.927 12.928.001 7.127-5.799 12.927-12.927 12.927z"/><path d="m155.249 429.588c4.142 0 7.5-3.358 7.5-7.5v-2.312c0-4.142-3.358-7.5-7.5-7.5s-7.5 3.358-7.5 7.5v2.312c0 4.142 3.358 7.5 7.5 7.5z"/><path d="m184.709 421.72c-3.371-2.41-8.056-1.629-10.463 1.74l-1.345 1.881c-2.409 3.37-1.629 8.054 1.74 10.463 1.322.945 2.846 1.399 4.355 1.399 2.339 0 4.644-1.091 6.108-3.139l1.345-1.881c2.409-3.37 1.63-8.054-1.74-10.463z"/><path d="m135.632 435.966c3.35-2.436 4.091-7.127 1.655-10.477l-1.36-1.87c-2.435-3.349-7.125-4.091-10.477-1.655-3.35 2.436-4.091 7.127-1.655 10.477l1.36 1.87c1.468 2.019 3.753 3.09 6.072 3.09 1.53 0 3.074-.466 4.405-1.435z"/><path d="m119.284 274.11c9.916 9.916 22.941 14.874 35.966 14.874s26.05-4.958 35.966-14.874c2.929-2.929 2.929-7.677 0-10.606s-7.678-2.929-10.606 0c-13.983 13.983-36.735 13.983-50.719 0-2.929-2.929-7.678-2.929-10.606 0-2.931 2.929-2.931 7.677-.001 10.606z"/><path d="m112.29 233.443c6.661 0 12.08-8.696 12.08-19.385s-5.419-19.385-12.08-19.385-12.079 8.696-12.079 19.385 5.418 19.385 12.079 19.385z"/><ellipse cx="198.208" cy="214.058" rx="12.079" ry="19.385"/><path d="m495.019 305.745-40.681-40.68c-6.036-6.036-14.062-9.36-22.598-9.36s-16.562 3.324-22.598 9.36c-4.122 4.122-6.934 9.242-8.327 14.717-2.552-.281-5.121-.426-7.692-.426h-81.003c-2.571 0-5.14.145-7.693.427-1.393-5.474-4.204-10.595-8.327-14.717-.362-.362-.731-.711-1.106-1.051 5.104-6.148 7.884-13.807 7.884-21.893v-162.512c.002-43.897-35.711-79.61-79.608-79.61-11.49 0-22.3 4.476-30.444 12.607-1.913 1.914-3.624 3.975-5.121 6.159-7.761-11.324-20.79-18.766-35.524-18.766h-64.951c-17.134 0-33.457 5.358-47.201 15.494-3.333 2.458-4.043 7.154-1.584 10.488s7.154 4.043 10.488 1.585c11.146-8.222 24.39-12.567 38.297-12.567h64.95c15.461 0 28.04 12.579 28.04 28.04 0 4.142 3.358 7.5 7.5 7.5s7.5-3.358 7.5-7.5c0-7.489 2.917-14.53 8.209-19.823 5.308-5.299 12.354-8.217 19.841-8.217 35.626 0 64.61 28.984 64.61 64.61v134.15c-4.703-3.219-10.242-5.296-16.22-5.84v-29.2c0-13.565-5.287-26.323-14.887-35.923-9.587-9.587-22.338-14.867-35.903-14.867-15.064 0-27.32-12.256-27.32-27.32v-7.45c0-3.339-2.208-6.276-5.416-7.205-3.205-.927-6.643.377-8.426 3.2-15.333 24.28-41.612 38.775-70.298 38.775h-19.78c-28.006 0-50.79 22.784-50.79 50.79v29.197c-5.861.527-11.411 2.528-16.22 5.821v-134.128c0-11.359 2.992-22.533 8.651-32.314 2.074-3.585.85-8.173-2.735-10.248-3.582-2.074-8.173-.851-10.248 2.735-6.979 12.061-10.668 25.833-10.668 39.827v162.51c0 .006.002.011.002.017.01 18.849 15.28 34.191 34.099 34.33 5.352 23.582 17.882 44.469 35.166 60.229-18.067 19.314-28.287 44.965-28.287 71.604v95.48c0 4.142 3.358 7.5 7.5 7.5h198.3c4.142 0 7.5-3.358 7.5-7.5v-32.961c5.59 5.815 12.228 10.702 19.713 14.349 6.747 13.706 20.856 23.162 37.137 23.162 4.222 0 8.347-.633 12.269-1.845 6.602 3.614 13.992 5.515 21.599 5.515 7.623 0 15.023-1.905 21.626-5.528 3.872 1.203 7.983 1.858 12.246 1.858 11.05 0 21.438-4.303 29.254-12.117 3.277-3.277 5.927-7.011 7.91-11.052 18.457-9.026 32.24-26.006 37.14-45.974.986-4.023-1.475-8.084-5.497-9.071-4.023-.988-8.084 1.474-9.071 5.497-2.813 11.467-9.372 21.673-18.365 29.103v-33.486c0-21.197-16.124-38.696-36.75-40.885-3.277-6.161-9.086-10.775-16.031-12.45v-83.54h18.045c2.514 0 5.023.193 7.509.535.271 1.173.59 2.34.999 3.489l21.357 60.004c3.696 10.386 12.324 18.035 23.079 20.459.579.131 1.16.244 1.74.342v28.326c0 4.142 3.357 7.5 7.5 7.5s7.5-3.358 7.5-7.5v-29.382c4.774-1.524 9.198-4.177 12.886-7.864l19.323-19.323c6.036-6.036 9.36-14.062 9.36-22.598s-3.323-16.562-9.359-22.598zm-472.397-63.627c0-5.167 2.013-10.025 5.667-13.68 2.904-2.903 6.573-4.75 10.551-5.394v27.646c0 3.567.17 7.094.486 10.58-9.42-1.299-16.704-9.381-16.704-19.152zm233.254 122.091c-5.793 1.306-11.522-.354-15.72-4.552l-19.323-19.323c-6.612-6.612-6.612-17.37 0-23.982l40.68-40.68c6.611-6.612 17.37-6.612 23.983 0 4.604 4.604 6.167 11.542 3.984 17.677l-21.357 60.004c-1.991 5.593-6.455 9.55-12.247 10.856zm32.004-122.089c0 5.168-2.015 10.028-5.674 13.687-.301.301-.613.588-.932.867-3.188-.794-6.475-1.087-9.738-.887.073-1.696.124-3.396.124-5.097v-27.642c9.184 1.507 16.22 9.473 16.22 19.072zm-234.04 8.57v-71.97c0-19.735 16.055-35.79 35.79-35.79h19.78c27.208 0 52.583-11.047 70.892-30.252 5.208 17.474 21.424 30.252 40.568 30.252 9.559 0 18.543 3.719 25.296 10.473 6.767 6.767 10.494 15.758 10.494 25.317v71.97c0 3.402-.173 6.797-.508 10.138-1.858 1.202-3.62 2.61-5.246 4.237l-40.68 40.68c-9.271 9.271-11.638 22.866-7.114 34.351-14.658 7.864-31.068 11.994-47.872 11.994-55.912 0-101.4-45.488-101.4-101.4zm70.84 112.321c9.743 2.654 19.988 4.079 30.561 4.079 10.406 0 20.677-1.397 30.579-4.086v27.52h-61.14zm-61.08 45.289c0-18.897 6.001-37.213 16.85-52.349v140.329h-16.85zm31.851 87.98v-145.756c4.551 2.736 9.303 5.172 14.229 7.275v40.226c0 4.142 3.358 7.5 7.5 7.5h76.14c4.142 0 7.5-3.358 7.5-7.5v-40.223c3.724-1.586 7.369-3.368 10.923-5.345l3.308 3.308v140.515zm151.449 0h-16.85v-125.54c3.586 3.437 7.823 5.932 12.386 7.388v44.382c0 8.541 1.564 16.828 4.464 24.536zm10.536-73.77v-43.327c.58-.098 1.16-.211 1.739-.342 10.755-2.424 19.383-10.073 23.079-20.459l21.357-60.004c.409-1.149.729-2.316.999-3.489 2.486-.341 4.996-.535 7.51-.535h18.041v83.54c-6.943 1.676-12.751 6.289-16.028 12.449-20.629 2.187-36.755 19.687-36.755 40.886v33.51c-12.426-10.23-19.942-25.622-19.942-42.229zm95.183 74.49c-1.685 0-3.351-.154-4.99-.428.124-.121.253-.235.376-.358 1.716-1.716 3.263-3.557 4.632-5.501 1.482 2.106 3.162 4.062 5.001 5.854-1.648.277-3.324.433-5.019.433zm60.242-65.77v35.73c0 7.044-2.743 13.666-7.723 18.646-4.981 4.981-11.604 7.724-18.647 7.724-14.541 0-26.37-11.83-26.37-26.37 0-4.142-3.357-7.5-7.5-7.5s-7.5 3.358-7.5 7.5c0 7.044-2.743 13.666-7.724 18.647-4.979 4.98-11.603 7.723-18.646 7.723-14.54 0-26.37-11.83-26.37-26.37v-35.73c0-12.016 8.159-22.157 19.226-25.19 1.858 10.976 10.975 19.516 22.226 20.479v2.805c0 10.361 8.429 18.79 18.79 18.79s18.79-8.429 18.79-18.79v-2.805c11.25-.963 20.367-9.502 22.226-20.478 11.064 3.034 19.222 13.174 19.222 25.189zm-33.869-29.324c0 5.351-4.353 9.704-9.703 9.704h-5.376c-4.143 0-7.5 3.358-7.5 7.5v10.215c0 2.09-1.7 3.79-3.79 3.79s-3.79-1.7-3.79-3.79v-10.215c0-4.142-3.357-7.5-7.5-7.5h-5.376c-5.351 0-9.703-4.353-9.703-9.704 0-5.35 4.353-9.703 9.703-9.703h1.706 29.917 1.709c5.35 0 9.703 4.353 9.703 9.703zm-18.913-24.703h-14.917v-82.847h14.917zm124.332-36.869-19.323 19.323c-4.198 4.198-9.93 5.857-15.72 4.552-5.792-1.306-10.256-5.263-12.247-10.856l-21.357-60.004c-2.183-6.135-.619-13.074 3.984-17.677 3.203-3.203 7.462-4.967 11.992-4.967 4.529 0 8.788 1.764 11.99 4.967l40.681 40.681c3.203 3.203 4.968 7.461 4.968 11.991s-1.764 8.787-4.968 11.99z"/><path d="m303.7 384.847c5.405 0 9.803-7.05 9.803-15.716s-4.397-15.716-9.803-15.716c-5.404 0-9.802 7.05-9.802 15.716s4.397 15.716 9.802 15.716z"/><path d="m391.743 369.132c0 8.666 4.397 15.716 9.803 15.716 5.404 0 9.802-7.05 9.802-15.716s-4.397-15.716-9.802-15.716c-5.406 0-9.803 7.05-9.803 15.716z"/></g></g></svg>