<?xml version="1.0" encoding="iso-8859-1"?>
<!-- Generator: Adobe Illustrator 19.0.0, SVG Export Plug-In . SVG Version: 6.00 Build 0)  -->
<svg version="1.1" id="Layer_1" xmlns="http://www.w3.org/2000/svg" xmlns:xlink="http://www.w3.org/1999/xlink" x="0px" y="0px"
	 viewBox="0 0 512 512" style="enable-background:new 0 0 512 512;" xml:space="preserve">
<polygon style="fill:#E6608D;" points="432.343,488.453 79.655,488.453 79.655,223.937 255.999,95.687 432.343,223.937 "/>
<polygon style="fill:#38C7C2;" points="255.999,95.687 39.577,256 7.514,207.906 255.999,23.546 504.484,207.906 472.421,256 "/>
<polygon style="fill:#D4506F;" points="273.598,108.485 255.999,95.687 79.655,223.937 79.655,252.3 79.655,488.453 
	103.702,488.453 103.702,234.469 "/>
<path style="fill:#FCDE76;" d="M183.858,383.806c0-30.988,32.298-72.141,72.141-72.141s72.141,41.152,72.141,72.141
	s-32.299,56.109-72.141,56.109S183.858,414.794,183.858,383.806z"/>
<path style="fill:#FCCF6F;" d="M272.03,432.344c-39.843,0-72.141-25.121-72.141-56.109c0-21.298,15.256-47.395,37.732-61.636
	c-30.94,9.933-53.763,43.159-53.763,69.207c0,30.988,32.298,56.109,72.141,56.109c17.066,0,32.738-4.619,45.09-12.325
	C292.198,430.638,282.373,432.344,272.03,432.344z"/>
<ellipse transform="matrix(-0.2524 0.9676 -0.9676 -0.2524 625.1058 44.2015)" style="fill:#FCDE76;" cx="295.478" cy="263.582" rx="32.062" ry="24.046"/>
<path style="fill:#FCCF6F;" d="M303.421,287.468c-12.851-3.353-19.644-19.96-15.175-37.094c1.966-7.536,5.785-13.917,10.539-18.418
	c-11.378,0.089-22.651,10.526-26.57,25.546c-4.47,17.134,2.325,33.742,15.175,37.094c7.198,1.878,14.769-0.804,20.824-6.536
	C306.61,288.072,305.006,287.882,303.421,287.468z"/>
<ellipse transform="matrix(-0.5 0.866 -0.866 -0.5 805.325 154.8135)" style="fill:#FCDE76;" cx="357.972" cy="309.881" rx="32.062" ry="24.046"/>
<path style="fill:#FCCF6F;" d="M357.967,337.636c-11.501-6.64-13.648-24.455-4.794-39.791c4.753-8.233,11.712-14.072,18.917-16.694
	c-11.356-4.897-26.572,2.186-34.948,16.694c-8.854,15.336-6.707,33.15,4.794,39.791c5.326,3.075,11.725,3.21,17.94,0.95
	C359.228,338.305,358.589,337.994,357.967,337.636z"/>
<ellipse transform="matrix(-0.2524 -0.9676 0.9676 -0.2524 16.1089 539.6063)" style="fill:#FCDE76;" cx="216.507" cy="263.58" rx="32.062" ry="24.046"/>
<path style="fill:#FCCF6F;" d="M232.626,279.452c-12.851,3.353-26.891-7.819-31.361-24.954c-1.606-6.157-1.751-12.242-0.69-17.671
	c-7.529,6.761-10.765,19.628-7.325,32.815c4.47,17.134,18.511,28.306,31.361,24.954c8.233-2.148,13.973-9.741,15.865-19.423
	C238.221,277.197,235.586,278.68,232.626,279.452z"/>
<ellipse transform="matrix(-0.5 -0.866 0.866 -0.5 -37.3114 598.1764)" style="fill:#FCDE76;" cx="154.02" cy="309.859" rx="32.062" ry="24.046"/>
<path style="fill:#FCCF6F;" d="M178.079,325.642c-11.501,6.64-28.003-0.409-36.857-15.744c-5.233-9.065-6.621-18.995-4.508-26.972
	c-10.36,7.194-12.019,24.223-3.508,38.966c8.854,15.336,25.355,22.384,36.857,15.744c4.703-2.715,7.839-7.3,9.301-12.818
	C178.949,325.106,178.523,325.385,178.079,325.642z"/>
<path d="M199.463,331.021c-14.476,15.704-23.119,35.437-23.119,52.785c0,35.082,35.734,63.624,79.655,63.624
	s79.655-28.542,79.655-63.624c0-11.348-3.628-23.66-10.49-35.603c-2.068-3.599-6.662-4.84-10.26-2.772
	c-3.598,2.067-4.839,6.661-2.771,10.259c5.477,9.532,8.493,19.517,8.493,28.117c0,26.795-28.992,48.595-64.626,48.595
	s-64.626-21.8-64.626-48.595c0-28.488,30.428-64.626,64.626-64.626c14.591,0,29.461,6.517,41.872,18.35
	c3.003,2.863,7.76,2.751,10.625-0.253c2.864-3.004,2.751-7.76-0.253-10.625C293.025,312.141,274.471,304.15,256,304.15
	C235.515,304.151,215.437,313.694,199.463,331.021z"/>
<path d="M305.473,225.276c-16.839-4.39-35.021,9.212-40.53,30.328c-2.569,9.85-2.069,19.956,1.409,28.458
	c3.728,9.115,10.705,15.603,19.14,17.805c2.119,0.553,4.287,0.825,6.473,0.825c6.514-0.001,13.157-2.418,18.927-7.01
	c7.187-5.719,12.561-14.294,15.131-24.143c2.569-9.85,2.069-19.956-1.409-28.458C320.885,233.966,313.908,227.477,305.473,225.276z
	 M311.479,267.744c-1.728,6.627-5.353,12.522-9.945,16.178c-3.759,2.994-8.805,4.851-13.5,2.993
	c-3.735-1.479-6.291-4.925-7.772-8.543c-2.221-5.432-2.505-12.346-0.775-18.973c3.008-11.533,11.476-19.93,19.441-19.93
	c5.676,0,9.76,4.374,11.776,9.302C312.925,254.203,313.208,261.118,311.479,267.744z"/>
<path d="M338.18,344.144c4.064,2.347,8.568,3.457,13.195,3.456c12.531,0,25.958-8.148,33.927-21.95
	c5.09-8.816,7.287-18.692,6.189-27.812c-1.177-9.778-6.183-17.886-13.734-22.243c-7.55-4.36-17.074-4.64-26.131-0.772
	c-8.446,3.608-15.902,10.45-20.991,19.267C319.724,312.986,323.108,335.442,338.18,344.144z M343.65,301.603
	c3.424-5.931,8.483-10.655,13.88-12.96c4.65-1.986,10.316-2.346,14.365,1.139c3.711,3.194,4.924,8.447,4.833,13.155
	c-0.102,5.326-1.79,10.604-4.443,15.198c-6.654,11.523-18.83,17.472-26.592,12.993C337.933,326.647,336.997,313.126,343.65,301.603z
	"/>
<path d="M206.527,225.276c-8.435,2.2-15.412,8.69-19.141,17.805c-3.478,8.502-3.978,18.607-1.409,28.458
	c2.569,9.849,7.943,18.424,15.131,24.143c5.771,4.593,12.412,7.01,18.927,7.01c2.184,0,4.354-0.272,6.472-0.825
	c8.435-2.2,15.412-8.69,19.141-17.805c3.478-8.502,3.978-18.607,1.409-28.458C241.548,234.489,223.363,220.881,206.527,225.276z
	 M231.738,278.371c-1.481,3.618-4.037,7.064-7.772,8.543c-4.694,1.859-9.74-0.002-13.5-2.993c-4.592-3.654-8.217-9.55-9.945-16.178
	c-1.729-6.626-1.446-13.541,0.776-18.973c2.017-4.929,6.1-9.302,11.776-9.302c7.965,0,16.433,8.397,19.441,19.93
	C234.243,266.024,233.959,272.94,231.738,278.371z"/>
<path d="M160.374,274.822c-9.057-3.87-18.58-3.587-26.131,0.772c-7.55,4.359-12.556,12.465-13.734,22.243
	c-1.099,9.12,1.099,18.996,6.189,27.812c7.971,13.803,21.395,21.951,33.927,21.95c4.626,0,9.132-1.11,13.195-3.456
	c15.071-8.703,18.456-31.158,7.545-50.056C176.276,285.272,168.82,278.429,160.374,274.822z M166.305,331.128
	c-7.759,4.479-19.938-1.471-26.592-12.993c-3.424-5.931-4.986-12.674-4.283-18.5c0.44-3.648,1.827-7.401,4.674-9.852
	c4.049-3.485,9.714-3.126,14.365-1.139c5.397,2.306,10.455,7.03,13.88,12.96C175.002,313.126,174.066,326.647,166.305,331.128z"/>
<path d="M508.962,201.871L260.477,17.511c-2.658-1.973-6.296-1.973-8.954,0L3.038,201.87c-3.215,2.386-3.996,6.872-1.774,10.204
	l32.063,48.094c2.348,3.521,7.322,4.392,10.726,1.87L72.14,241.23v160.551c0,4.151,3.365,7.515,7.515,7.515
	c4.15,0,7.515-3.364,7.515-7.515V230.45c0-0.115-0.012-0.227-0.017-0.341l168.846-125.071l168.829,125.059v250.841H87.17v-48.594
	c0-4.151-3.365-7.515-7.515-7.515c-4.15,0-7.515,3.364-7.515,7.515v56.108c0,4.151,3.365,7.515,7.515,7.515h352.688
	c4.15,0,7.515-3.364,7.515-7.515V241.231l28.091,20.808c3.406,2.523,8.378,1.651,10.726-1.87l32.063-48.094
	C512.958,208.743,512.177,204.257,508.962,201.871z M470.55,245.262L260.473,89.649c-1.329-0.984-2.901-1.477-4.474-1.477
	c-1.572,0-3.144,0.492-4.473,1.477L41.45,245.261l-23.718-35.578L255.999,32.903l238.269,176.78L470.55,245.262z"/>
<g>
</g>
<g>
</g>
<g>
</g>
<g>
</g>
<g>
</g>
<g>
</g>
<g>
</g>
<g>
</g>
<g>
</g>
<g>
</g>
<g>
</g>
<g>
</g>
<g>
</g>
<g>
</g>
<g>
</g>
</svg>
